{"asset":{"generator":"Khronos glTF Blender I/O v5.2.40","version":"2.0","extras":{"tela":"chenille","color":"Terracota"}},"extensionsUsed":["KHR_materials_specular","KHR_materials_sheen","KHR_materials_ior"],"scene":0,"scenes":[{"name":"Scene","nodes":[0,1]}],"nodes":[{"mesh":0,"name":"madera_ar"},{"mesh":1,"name":"tela_ar"}],"materials":[{"doubleSided":true,"extensions":{"KHR_materials_specular":{"specularFactor":0.699999988079071}},"name":"roble_claro","pbrMetallicRoughness":{"baseColorTexture":{"index":0},"metallicFactor":0,"roughnessFactor":0.6200000047683716}},{"doubleSided":true,"extensions":{"KHR_materials_specular":{"specularFactor":0.5},"KHR_materials_sheen":{"sheenColorFactor":[0.05053541739457854,0.017622490547612706,0.011505426135218016],"sheenRoughnessFactor":0.8},"KHR_materials_ior":{"ior":1.2}},"name":"tela_ar","normalTexture":{"index":1},"pbrMetallicRoughness":{"baseColorFactor":[0.6184776556139701,0.1956250194905898,0.1258344034442531,1],"baseColorTexture":{"index":2},"metallicFactor":0,"metallicRoughnessTexture":{"index":3}}}],"meshes":[{"name":"madera_patas.047","primitives":[{"attributes":{"POSITION":0,"NORMAL":1,"TEXCOORD_0":2},"indices":3,"material":0}]},{"name":"tela_sofa.579","primitives":[{"attributes":{"POSITION":4,"NORMAL":5,"TEXCOORD_0":6,"COLOR_0":7},"indices":8,"material":1}]}],"textures":[{"sampler":0,"source":0},{"sampler":0,"source":1},{"sampler":0,"source":2},{"sampler":0,"source":3}],"images":[{"mimeType":"image/jpeg","name":"roble_base","uri":"roble_base.jpg"},{"mimeType":"image/jpeg","name":"nor_chenille","uri":"nor_chenille.jpg"},{"mimeType":"image/jpeg","name":"base_chenille","uri":"base_chenille.jpg"},{"mimeType":"image/jpeg","name":"rough_chenille","uri":"rough_chenille.jpg"}],"accessors":[{"bufferView":0,"componentType":5126,"count":520,"max":[0.749686062335968,0.16072073578834534,0.36025911569595337],"min":[-0.749686062335968,0,-0.3825746178627014],"type":"VEC3"},{"bufferView":1,"componentType":5126,"count":520,"type":"VEC3"},{"bufferView":2,"componentType":5126,"count":520,"type":"VEC2"},{"bufferView":3,"componentType":5123,"count":1488,"type":"SCALAR"},{"bufferView":4,"componentType":5126,"count":34428,"max":[0.8499987721443176,0.8275269865989685,0.45212042331695557],"min":[-0.8499991297721863,0.16072127223014832,-0.45999929308891296],"type":"VEC3"},{"bufferView":5,"componentType":5126,"count":34428,"type":"VEC3"},{"bufferView":6,"componentType":5126,"count":34428,"type":"VEC2"},{"bufferView":7,"componentType":5123,"count":34428,"normalized":true,"type":"VEC4"},{"bufferView":8,"componentType":5123,"count":184716,"type":"SCALAR"}],"bufferViews":[{"buffer":0,"byteLength":6240,"byteOffset":0,"target":34962},{"buffer":0,"byteLength":6240,"byteOffset":6240,"target":34962},{"buffer":0,"byteLength":4160,"byteOffset":12480,"target":34962},{"buffer":0,"byteLength":2976,"byteOffset":16640,"target":34963},{"buffer":0,"byteLength":413136,"byteOffset":19616,"target":34962},{"buffer":0,"byteLength":413136,"byteOffset":432752,"target":34962},{"buffer":0,"byteLength":275424,"byteOffset":845888,"target":34962},{"buffer":0,"byteLength":275424,"byteOffset":1121312,"target":34962},{"buffer":0,"byteLength":369432,"byteOffset":1396736,"target":34963}],"samplers":[{"magFilter":9729,"minFilter":9987}],"buffers":[{"byteLength":1766168,"uri":"nordico-2-cuerpos.bin"}]}