{"asset":{"generator":"Khronos glTF Blender I/O v5.2.40","version":"2.0","extras":{"tela":"cuero","color":"Suela"}},"extensionsUsed":["KHR_materials_specular","KHR_materials_sheen","KHR_materials_ior"],"scene":0,"scenes":[{"name":"Scene","nodes":[0,1]}],"nodes":[{"mesh":0,"name":"madera_ar"},{"mesh":1,"name":"tela_ar"}],"materials":[{"doubleSided":true,"extensions":{"KHR_materials_specular":{"specularFactor":0.699999988079071}},"name":"roble_claro","pbrMetallicRoughness":{"baseColorTexture":{"index":0},"metallicFactor":0,"roughnessFactor":0.6200000047683716}},{"doubleSided":true,"extensions":{"KHR_materials_specular":{"specularFactor":0.5},"KHR_materials_sheen":{"sheenColorFactor":[0,0,0],"sheenRoughnessFactor":0.5},"KHR_materials_ior":{"ior":1.45}},"name":"tela_ar","normalTexture":{"index":1},"pbrMetallicRoughness":{"baseColorFactor":[0.5052548099996429,0.20782956841389486,0.10219183551352164,1],"baseColorTexture":{"index":2},"metallicFactor":0,"metallicRoughnessTexture":{"index":3}}}],"meshes":[{"name":"madera_patas.037","primitives":[{"attributes":{"POSITION":0,"NORMAL":1,"TEXCOORD_0":2},"indices":3,"material":0}]},{"name":"tela_sofa.420","primitives":[{"attributes":{"POSITION":4,"NORMAL":5,"TEXCOORD_0":6,"COLOR_0":7},"indices":8,"material":1}]}],"textures":[{"sampler":0,"source":0},{"sampler":0,"source":1},{"sampler":0,"source":2},{"sampler":0,"source":3}],"images":[{"mimeType":"image/jpeg","name":"roble_base","uri":"roble_base.jpg"},{"mimeType":"image/jpeg","name":"nor_cuero","uri":"nor_cuero.jpg"},{"mimeType":"image/jpeg","name":"base_cuero","uri":"base_cuero.jpg"},{"mimeType":"image/jpeg","name":"rough_cuero","uri":"rough_cuero.jpg"}],"accessors":[{"bufferView":0,"componentType":5126,"count":520,"max":[1.0068467855453491,0.16072073578834534,0.36025911569595337],"min":[-1.0068467855453491,0,-0.3825746178627014],"type":"VEC3"},{"bufferView":1,"componentType":5126,"count":520,"type":"VEC3"},{"bufferView":2,"componentType":5126,"count":520,"type":"VEC2"},{"bufferView":3,"componentType":5123,"count":1488,"type":"SCALAR"},{"bufferView":4,"componentType":5126,"count":52769,"max":[1.0999988317489624,0.8208207488059998,0.460978239774704],"min":[-1.0999984741210938,0.16072092950344086,-0.4599985182285309],"type":"VEC3"},{"bufferView":5,"componentType":5126,"count":52769,"type":"VEC3"},{"bufferView":6,"componentType":5126,"count":52769,"type":"VEC2"},{"bufferView":7,"componentType":5123,"count":52769,"normalized":true,"type":"VEC4"},{"bufferView":8,"componentType":5123,"count":284088,"type":"SCALAR"}],"bufferViews":[{"buffer":0,"byteLength":6240,"byteOffset":0,"target":34962},{"buffer":0,"byteLength":6240,"byteOffset":6240,"target":34962},{"buffer":0,"byteLength":4160,"byteOffset":12480,"target":34962},{"buffer":0,"byteLength":2976,"byteOffset":16640,"target":34963},{"buffer":0,"byteLength":633228,"byteOffset":19616,"target":34962},{"buffer":0,"byteLength":633228,"byteOffset":652844,"target":34962},{"buffer":0,"byteLength":422152,"byteOffset":1286072,"target":34962},{"buffer":0,"byteLength":422152,"byteOffset":1708224,"target":34962},{"buffer":0,"byteLength":568176,"byteOffset":2130376,"target":34963}],"samplers":[{"magFilter":9729,"minFilter":9987}],"buffers":[{"byteLength":2698552,"uri":"nordico-3-cuerpos.bin"}]}