{"asset":{"generator":"Khronos glTF Blender I/O v5.2.40","version":"2.0","extras":{"tela":"pana","color":"Bruma"}},"extensionsUsed":["KHR_materials_specular","KHR_materials_sheen","KHR_texture_transform"],"scene":0,"scenes":[{"name":"Scene","nodes":[0,1]}],"nodes":[{"mesh":0,"name":"madera_ar"},{"mesh":1,"name":"tela_ar"}],"materials":[{"doubleSided":true,"extensions":{"KHR_materials_specular":{"specularFactor":0.699999988079071}},"name":"roble_claro","pbrMetallicRoughness":{"baseColorTexture":{"index":0},"metallicFactor":0,"roughnessFactor":0.6200000047683716}},{"doubleSided":true,"extensions":{"KHR_materials_specular":{"specularFactor":0.5},"KHR_materials_sheen":{"sheenColorFactor":[0.06592538411512426,0.07851812360916385,0.08670700237808833],"sheenRoughnessFactor":0.7}},"name":"tela_ar","normalTexture":{"index":1,"extensions":{"KHR_texture_transform":{"scale":[1.511,1.511]}}},"pbrMetallicRoughness":{"baseColorFactor":[0.44736007271616723,0.5601982402254825,0.6335752901262395,1],"baseColorTexture":{"index":2,"extensions":{"KHR_texture_transform":{"scale":[1.511,1.511]}}},"metallicFactor":0,"metallicRoughnessTexture":{"index":3,"extensions":{"KHR_texture_transform":{"scale":[1.511,1.511]}}}}}],"meshes":[{"name":"madera_patas.024","primitives":[{"attributes":{"POSITION":0,"NORMAL":1,"TEXCOORD_0":2},"indices":3,"material":0}]},{"name":"tela_sofa.251","primitives":[{"attributes":{"POSITION":4,"NORMAL":5,"TEXCOORD_0":6,"COLOR_0":7},"indices":8,"material":1}]}],"textures":[{"sampler":0,"source":0},{"sampler":0,"source":1},{"sampler":0,"source":2},{"sampler":0,"source":3}],"images":[{"mimeType":"image/jpeg","name":"roble_base","uri":"roble_base.jpg"},{"mimeType":"image/jpeg","name":"nor_pana","uri":"nor_pana.jpg"},{"mimeType":"image/jpeg","name":"base_pana","uri":"base_pana.jpg"},{"mimeType":"image/jpeg","name":"rough_pana","uri":"rough_pana.jpg"}],"accessors":[{"bufferView":0,"componentType":5126,"count":520,"max":[1.0068467855453491,0.16072073578834534,0.36025911569595337],"min":[-1.0068467855453491,0,-0.3825746178627014],"type":"VEC3"},{"bufferView":1,"componentType":5126,"count":520,"type":"VEC3"},{"bufferView":2,"componentType":5126,"count":520,"type":"VEC2"},{"bufferView":3,"componentType":5123,"count":1488,"type":"SCALAR"},{"bufferView":4,"componentType":5126,"count":50107,"max":[1.0999988317489624,0.8253329396247864,0.4607613980770111],"min":[-1.0999984741210938,0.16072094440460205,-0.4599985182285309],"type":"VEC3"},{"bufferView":5,"componentType":5126,"count":50107,"type":"VEC3"},{"bufferView":6,"componentType":5126,"count":50107,"type":"VEC2"},{"bufferView":7,"componentType":5123,"count":50107,"normalized":true,"type":"VEC4"},{"bufferView":8,"componentType":5123,"count":270000,"type":"SCALAR"}],"bufferViews":[{"buffer":0,"byteLength":6240,"byteOffset":0,"target":34962},{"buffer":0,"byteLength":6240,"byteOffset":6240,"target":34962},{"buffer":0,"byteLength":4160,"byteOffset":12480,"target":34962},{"buffer":0,"byteLength":2976,"byteOffset":16640,"target":34963},{"buffer":0,"byteLength":601284,"byteOffset":19616,"target":34962},{"buffer":0,"byteLength":601284,"byteOffset":620900,"target":34962},{"buffer":0,"byteLength":400856,"byteOffset":1222184,"target":34962},{"buffer":0,"byteLength":400856,"byteOffset":1623040,"target":34962},{"buffer":0,"byteLength":540000,"byteOffset":2023896,"target":34963}],"samplers":[{"magFilter":9729,"minFilter":9987}],"buffers":[{"byteLength":2563896,"uri":"nordico-3-cuerpos.bin"}]}