{"asset":{"generator":"Khronos glTF Blender I/O v5.2.40","version":"2.0","extras":{"tela":"lino","color":"Natural"}},"extensionsUsed":["KHR_materials_specular","KHR_materials_sheen","KHR_materials_ior","KHR_texture_transform"],"scene":0,"scenes":[{"name":"Scene","nodes":[0,1]}],"nodes":[{"mesh":0,"name":"madera_ar"},{"mesh":1,"name":"tela_ar"}],"materials":[{"doubleSided":true,"extensions":{"KHR_materials_specular":{"specularFactor":0.699999988079071}},"name":"roble_claro","pbrMetallicRoughness":{"baseColorTexture":{"index":0},"metallicFactor":0,"roughnessFactor":0.6200000047683716}},{"doubleSided":true,"extensions":{"KHR_materials_specular":{"specularFactor":0.5},"KHR_materials_sheen":{"sheenColorFactor":[0.05618808374508383,0.05039766338139773,0.040428333915662834],"sheenRoughnessFactor":0.8},"KHR_materials_ior":{"ior":1.2}},"name":"tela_ar","normalTexture":{"index":1,"extensions":{"KHR_texture_transform":{"scale":[2.0145,2.0145]}}},"pbrMetallicRoughness":{"baseColorFactor":[0.8860455644326626,0.7877362203972448,0.6184776556139701,1],"baseColorTexture":{"index":2,"extensions":{"KHR_texture_transform":{"scale":[2.0145,2.0145]}}},"metallicFactor":0,"metallicRoughnessTexture":{"index":3,"extensions":{"KHR_texture_transform":{"scale":[2.0145,2.0145]}}}}}],"meshes":[{"name":"madera_patas.051","primitives":[{"attributes":{"POSITION":0,"NORMAL":1,"TEXCOORD_0":2},"indices":3,"material":0}]},{"name":"tela_sofa.695","primitives":[{"attributes":{"POSITION":4,"NORMAL":5,"TEXCOORD_0":6,"COLOR_0":7},"indices":8,"material":1}]}],"textures":[{"sampler":0,"source":0},{"sampler":0,"source":1},{"sampler":0,"source":2},{"sampler":0,"source":3}],"images":[{"mimeType":"image/jpeg","name":"roble_base","uri":"roble_base.jpg"},{"mimeType":"image/jpeg","name":"nor_lino","uri":"nor_lino.jpg"},{"mimeType":"image/jpeg","name":"base_lino","uri":"base_lino.jpg"},{"mimeType":"image/jpeg","name":"rough_lino","uri":"rough_lino.jpg"}],"accessors":[{"bufferView":0,"componentType":5126,"count":650,"max":[1.189909815788269,0.16072073578834534,0.6998373866081238],"min":[-1.189909815788269,0,-0.7222472429275513],"type":"VEC3"},{"bufferView":1,"componentType":5126,"count":650,"type":"VEC3"},{"bufferView":2,"componentType":5126,"count":650,"type":"VEC2"},{"bufferView":3,"componentType":5123,"count":1860,"type":"SCALAR"},{"bufferView":4,"componentType":5126,"count":40979,"max":[1.3000001907348633,0.8227439522743225,0.798675537109375],"min":[-1.2999985218048096,0.16072063148021698,-0.7999994158744812],"type":"VEC3"},{"bufferView":5,"componentType":5126,"count":40979,"type":"VEC3"},{"bufferView":6,"componentType":5126,"count":40979,"type":"VEC2"},{"bufferView":7,"componentType":5123,"count":40979,"normalized":true,"type":"VEC4"},{"bufferView":8,"componentType":5123,"count":218736,"type":"SCALAR"}],"bufferViews":[{"buffer":0,"byteLength":7800,"byteOffset":0,"target":34962},{"buffer":0,"byteLength":7800,"byteOffset":7800,"target":34962},{"buffer":0,"byteLength":5200,"byteOffset":15600,"target":34962},{"buffer":0,"byteLength":3720,"byteOffset":20800,"target":34963},{"buffer":0,"byteLength":491748,"byteOffset":24520,"target":34962},{"buffer":0,"byteLength":491748,"byteOffset":516268,"target":34962},{"buffer":0,"byteLength":327832,"byteOffset":1008016,"target":34962},{"buffer":0,"byteLength":327832,"byteOffset":1335848,"target":34962},{"buffer":0,"byteLength":437472,"byteOffset":1663680,"target":34963}],"samplers":[{"magFilter":9729,"minFilter":9987}],"buffers":[{"byteLength":2101152,"uri":"nordico-con-chaise.bin"}]}