{"asset":{"generator":"Khronos glTF Blender I/O v5.2.40","version":"2.0","extras":{"tela":"chenille","color":"Bruma"}},"extensionsUsed":["KHR_materials_specular","KHR_materials_sheen","KHR_materials_ior"],"scene":0,"scenes":[{"name":"Scene","nodes":[0,1]}],"nodes":[{"mesh":0,"name":"madera_ar"},{"mesh":1,"name":"tela_ar"}],"materials":[{"doubleSided":true,"extensions":{"KHR_materials_specular":{"specularFactor":0.699999988079071}},"name":"roble_claro","pbrMetallicRoughness":{"baseColorTexture":{"index":0},"metallicFactor":0,"roughnessFactor":0.6200000047683716}},{"doubleSided":true,"extensions":{"KHR_materials_specular":{"specularFactor":0.5},"KHR_materials_sheen":{"sheenColorFactor":[0.042691746918934556,0.04998549213406091,0.05391717821076954],"sheenRoughnessFactor":0.8},"KHR_materials_ior":{"ior":1.2}},"name":"tela_ar","normalTexture":{"index":1},"pbrMetallicRoughness":{"baseColorFactor":[0.5119422331943572,0.6110083821264639,0.6644098908084147,1],"baseColorTexture":{"index":2},"metallicFactor":0,"metallicRoughnessTexture":{"index":3}}}],"meshes":[{"name":"madera_patas.050","primitives":[{"attributes":{"POSITION":0,"NORMAL":1,"TEXCOORD_0":2},"indices":3,"material":0}]},{"name":"tela_sofa.670","primitives":[{"attributes":{"POSITION":4,"NORMAL":5,"TEXCOORD_0":6,"COLOR_0":7},"indices":8,"material":1}]}],"textures":[{"sampler":0,"source":0},{"sampler":0,"source":1},{"sampler":0,"source":2},{"sampler":0,"source":3}],"images":[{"mimeType":"image/jpeg","name":"roble_base","uri":"roble_base.jpg"},{"mimeType":"image/jpeg","name":"nor_chenille","uri":"nor_chenille.jpg"},{"mimeType":"image/jpeg","name":"base_chenille","uri":"base_chenille.jpg"},{"mimeType":"image/jpeg","name":"rough_chenille","uri":"rough_chenille.jpg"}],"accessors":[{"bufferView":0,"componentType":5126,"count":520,"max":[1.2608532905578613,0.16072073578834534,0.36025911569595337],"min":[-1.2608532905578613,0,-0.3825746178627014],"type":"VEC3"},{"bufferView":1,"componentType":5126,"count":520,"type":"VEC3"},{"bufferView":2,"componentType":5126,"count":520,"type":"VEC2"},{"bufferView":3,"componentType":5123,"count":1488,"type":"SCALAR"},{"bufferView":4,"componentType":5126,"count":39436,"max":[1.3499923944473267,0.829684317111969,0.4623742997646332],"min":[-1.3499919176101685,0.16072186827659607,-0.45999911427497864],"type":"VEC3"},{"bufferView":5,"componentType":5126,"count":39436,"type":"VEC3"},{"bufferView":6,"componentType":5126,"count":39436,"type":"VEC2"},{"bufferView":7,"componentType":5123,"count":39436,"normalized":true,"type":"VEC4"},{"bufferView":8,"componentType":5123,"count":206436,"type":"SCALAR"}],"bufferViews":[{"buffer":0,"byteLength":6240,"byteOffset":0,"target":34962},{"buffer":0,"byteLength":6240,"byteOffset":6240,"target":34962},{"buffer":0,"byteLength":4160,"byteOffset":12480,"target":34962},{"buffer":0,"byteLength":2976,"byteOffset":16640,"target":34963},{"buffer":0,"byteLength":473232,"byteOffset":19616,"target":34962},{"buffer":0,"byteLength":473232,"byteOffset":492848,"target":34962},{"buffer":0,"byteLength":315488,"byteOffset":966080,"target":34962},{"buffer":0,"byteLength":315488,"byteOffset":1281568,"target":34962},{"buffer":0,"byteLength":412872,"byteOffset":1597056,"target":34963}],"samplers":[{"magFilter":9729,"minFilter":9987}],"buffers":[{"byteLength":2009928,"uri":"nordico-4-cuerpos.bin"}]}